<svg xmlns="http://www.w3.org/2000/svg" xmlns:xlink="http://www.w3.org/1999/xlink" width="793pt" height="311pt" viewBox="0 0 793.09 311"><g id="graph0" class="graph" transform="scale(1 1) rotate(0) translate(4 307)"><title>G</title><polygon fill="#fff" stroke="transparent" points="-4 4 -4 -307 789.091 -307 789.091 4 -4 4"/><g id="clust1" class="cluster"><title>cluster_Global</title><path fill="none" stroke="silver" d="M20,-8C20,-8 765.0913,-8 765.0913,-8 771.0913,-8 777.0913,-14 777.0913,-20 777.0913,-20 777.0913,-283 777.0913,-283 777.0913,-289 771.0913,-295 765.0913,-295 765.0913,-295 20,-295 20,-295 14,-295 8,-289 8,-283 8,-283 8,-20 8,-20 8,-14 14,-8 20,-8"/><text x="392.546" y="-282.2" fill="silver" font-family="Times,serif" font-size="11" text-anchor="middle">Global</text></g><g id="node1" class="node"><title>\\ConsumerStrategies_CurlConsumer</title><polygon fill="none" stroke="#000" points="762.307 -268 542.04 -268 542.04 -232 762.307 -232 762.307 -268"/><text x="652.174" y="-246.7" fill="#000" font-family="Courier,monospace" font-size="11" text-anchor="middle">ConsumerStrategies_CurlConsumer</text></g><g id="node9" class="node"><title>\\ConsumerStrategies_AbstractConsumer</title><polygon fill="none" stroke="#000" points="463.275 -187 216.2 -187 216.2 -151 463.275 -151 463.275 -187"/><text x="306.732" y="-171.2" fill="#000" font-family="Courier,monospace" font-size="11" text-anchor="start">«abstract»</text><text x="224.218" y="-160.2" fill="#000" font-family="Courier,monospace" font-size="11" text-anchor="start">ConsumerStrategies_AbstractConsumer</text></g><g id="edge1" class="edge"><title>\\ConsumerStrategies_CurlConsumer-&gt;\\ConsumerStrategies_AbstractConsumer</title><path fill="none" stroke="#000" d="M567.8412,-231.9265C556.8209,-229.1554 545.7272,-226.1574 535.2559,-223 502.535,-213.1336 496.0341,-205.674 463.2559,-196 455.5477,-193.7251 447.5179,-191.5486 439.416,-189.4889"/><polygon fill="none" stroke="#000" points="440.063 -186.043 429.515 -187.036 438.379 -192.838 440.063 -186.043"/></g><g id="node2" class="node"><title>\\Mixpanel</title><polygon fill="none" stroke="#000" points="374.046 -241 305.428 -241 305.428 -205 374.046 -205 374.046 -241"/><text x="339.737" y="-219.7" fill="#000" font-family="Courier,monospace" font-size="11" text-anchor="middle">Mixpanel</text></g><g id="node8" class="node"><title>\\Base_MixpanelBase</title><polygon fill="none" stroke="#000" points="144.328 -187 15.891 -187 15.891 -151 144.328 -151 144.328 -187"/><text x="80.109" y="-165.7" fill="#000" font-family="Courier,monospace" font-size="11" text-anchor="middle">Base_MixpanelBase</text></g><g id="edge2" class="edge"><title>\\Mixpanel-&gt;\\Base_MixpanelBase</title><path fill="none" stroke="#000" d="M305.2605,-215.8292C266.9981,-207.871 204.1082,-194.7906 154.5068,-184.474"/><polygon fill="none" stroke="#000" points="154.96 -180.993 144.457 -182.384 153.535 -187.847 154.96 -180.993"/></g><g id="node3" class="node"><title>\\Producers_MixpanelPeople</title><polygon fill="none" stroke="#000" points="739.6 -106 564.747 -106 564.747 -70 739.6 -70 739.6 -106"/><text x="652.174" y="-84.7" fill="#000" font-family="Courier,monospace" font-size="11" text-anchor="middle">Producers_MixpanelPeople</text></g><g id="node4" class="node"><title>\\Producers_MixpanelBaseProducer</title><polygon fill="none" stroke="#000" points="446.769 -106 232.705 -106 232.705 -70 446.769 -70 446.769 -106"/><text x="306.732" y="-90.2" fill="#000" font-family="Courier,monospace" font-size="11" text-anchor="start">«abstract»</text><text x="240.721" y="-79.2" fill="#000" font-family="Courier,monospace" font-size="11" text-anchor="start">Producers_MixpanelBaseProducer</text></g><g id="edge3" class="edge"><title>\\Producers_MixpanelPeople-&gt;\\Producers_MixpanelBaseProducer</title><path fill="none" stroke="#000" d="M564.7271,-88C531.4548,-88 492.9824,-88 457.365,-88"/><polygon fill="none" stroke="#000" points="456.909 -84.5 446.909 -88 456.909 -91.5 456.909 -84.5"/></g><g id="edge4" class="edge"><title>\\Producers_MixpanelBaseProducer-&gt;\\Base_MixpanelBase</title><path fill="none" stroke="#000" d="M281.7946,-106.0772C242.086,-118.4657 189.276,-134.9416 147.656,-147.9264"/><polygon fill="none" stroke="#000" points="146.378 -144.659 137.874 -150.978 148.463 -151.341 146.378 -144.659"/></g><g id="node5" class="node"><title>\\ConsumerStrategies_SocketConsumer</title><polygon fill="none" stroke="#000" points="769.009 -214 535.338 -214 535.338 -178 769.009 -178 769.009 -214"/><text x="652.174" y="-192.7" fill="#000" font-family="Courier,monospace" font-size="11" text-anchor="middle">ConsumerStrategies_SocketConsumer</text></g><g id="edge5" class="edge"><title>\\ConsumerStrategies_SocketConsumer-&gt;\\ConsumerStrategies_AbstractConsumer</title><path fill="none" stroke="#000" d="M534.9448,-185.8694C514.8562,-184.1334 493.8486,-182.3179 473.37,-180.5482"/><polygon fill="none" stroke="#000" points="473.63 -177.058 463.366 -179.684 473.027 -184.032 473.63 -177.058"/></g><g id="node6" class="node"><title>\\Producers_MixpanelEvents</title><polygon fill="none" stroke="#000" points="739.6 -52 564.747 -52 564.747 -16 739.6 -16 739.6 -52"/><text x="652.174" y="-30.7" fill="#000" font-family="Courier,monospace" font-size="11" text-anchor="middle">Producers_MixpanelEvents</text></g><g id="edge6" class="edge"><title>\\Producers_MixpanelEvents-&gt;\\Producers_MixpanelBaseProducer</title><path fill="none" stroke="#000" d="M564.7271,-49.1138C530.487,-55.0317 490.7397,-61.9014 454.2643,-68.2057"/><polygon fill="none" stroke="#000" points="453.328 -64.816 444.07 -69.968 454.52 -71.713 453.328 -64.816"/></g><g id="node7" class="node"><title>\\ConsumerStrategies_FileConsumer</title><polygon fill="none" stroke="#000" points="762.307 -160 542.04 -160 542.04 -124 762.307 -124 762.307 -160"/><text x="652.174" y="-138.7" fill="#000" font-family="Courier,monospace" font-size="11" text-anchor="middle">ConsumerStrategies_FileConsumer</text></g><g id="edge7" class="edge"><title>\\ConsumerStrategies_FileConsumer-&gt;\\ConsumerStrategies_AbstractConsumer</title><path fill="none" stroke="#000" d="M542.0202,-151.5192C519.8292,-153.4369 496.2764,-155.4723 473.3841,-157.4506"/><polygon fill="none" stroke="#000" points="472.933 -153.976 463.271 -158.325 473.535 -160.95 472.933 -153.976"/></g><g id="edge8" class="edge"><title>\\ConsumerStrategies_AbstractConsumer-&gt;\\Base_MixpanelBase</title><path fill="none" stroke="#000" d="M216.0061,-169C194.9715,-169 173.7235,-169 154.4776,-169"/><polygon fill="none" stroke="#000" points="154.308 -165.5 144.308 -169 154.308 -172.5 154.308 -165.5"/></g></g></svg>